<?xml version="1.0" encoding="UTF-8"?>
<!DOCTYPE svg PUBLIC "-//W3C//DTD SVG 1.1//EN" "http://www.w3.org/Graphics/SVG/1.1/DTD/svg11.dtd">
<svg xmlns="http://www.w3.org/2000/svg" version="1.1" width="512px" height="512px" style="shape-rendering:geometricPrecision; text-rendering:geometricPrecision; image-rendering:optimizeQuality; fill-rule:evenodd; clip-rule:evenodd" xmlns:xlink="http://www.w3.org/1999/xlink">
<g><path style="opacity:0.93" fill="#000000" d="M 354.5,-0.5 C 388.833,-0.5 423.167,-0.5 457.5,-0.5C 479.075,6.61537 488.575,21.6154 486,44.5C 482.108,50.2591 477.441,50.9258 472,46.5C 470.776,41.6141 470.109,36.6141 470,31.5C 467.592,24.0908 462.758,18.9241 455.5,16C 422.5,15.3333 389.5,15.3333 356.5,16C 348.359,19.1369 343.526,24.9703 342,33.5C 341.167,68.5048 341.333,103.505 342.5,138.5C 354.501,131.835 366.168,124.668 377.5,117C 380.382,115.392 383.382,114.059 386.5,113C 408.783,111.709 431.116,111.043 453.5,111C 460.745,109.423 465.911,105.256 469,98.5C 470.204,90.2277 470.871,81.8944 471,73.5C 473.226,69.1392 476.726,67.6392 481.5,69C 483.667,69.8333 485.167,71.3333 486,73.5C 487.096,83.9749 486.429,94.3083 484,104.5C 478.139,117.183 468.306,124.683 454.5,127C 433.833,127.333 413.167,127.667 392.5,128C 378.868,135.484 365.534,143.484 352.5,152C 342.731,156.718 334.564,154.885 328,146.5C 327.027,144.608 326.36,142.608 326,140.5C 325.333,104.167 325.333,67.8333 326,31.5C 329.029,14.9755 338.529,4.30883 354.5,-0.5 Z"/></g>
<g><path style="opacity:0.926" fill="#000000" d="M 358.5,33.5 C 390.168,33.3334 421.835,33.5 453.5,34C 458.224,36.4353 459.724,40.2686 458,45.5C 456.786,47.0488 455.286,48.2155 453.5,49C 421.833,49.6667 390.167,49.6667 358.5,49C 353.465,45.9867 352.298,41.8201 355,36.5C 356.145,35.3636 357.312,34.3636 358.5,33.5 Z"/></g>
<g><path style="opacity:0.935" fill="#000000" d="M 511.5,483.5 C 511.5,489.5 511.5,495.5 511.5,501.5C 509.083,506.252 505.417,509.585 500.5,511.5C 461.5,511.5 422.5,511.5 383.5,511.5C 381.098,509.109 378.764,509.109 376.5,511.5C 337.167,511.5 297.833,511.5 258.5,511.5C 256.5,508.833 254.5,508.833 252.5,511.5C 213.167,511.5 173.833,511.5 134.5,511.5C 132.236,509.109 129.902,509.109 127.5,511.5C 107.167,511.5 86.8333,511.5 66.5,511.5C 62.7593,508.444 61.5927,504.444 63,499.5C 64.3189,497.513 66.1523,496.346 68.5,496C 86.8303,495.5 105.164,495.333 123.5,495.5C 122.443,473.145 112.11,456.811 92.5,446.5C 82.8118,459.782 70.4784,462.949 55.5,456C 51.6599,453.326 48.3266,450.159 45.5,446.5C 26.0662,457.03 16.0662,473.364 15.5,495.5C 23.5852,495.099 31.5852,495.599 39.5,497C 44.6053,502.115 44.272,506.948 38.5,511.5C 29.1667,511.5 19.8333,511.5 10.5,511.5C 5.58321,509.585 1.91654,506.252 -0.5,501.5C -0.5,495.5 -0.5,489.5 -0.5,483.5C 5.07935,458.079 19.746,439.912 43.5,429C 31.4196,421.674 23.5863,411.174 20,397.5C 18.4252,380.873 18.0918,364.206 19,347.5C 24.4364,320.063 41.1031,305.396 69,303.5C 95.9996,305.164 112.666,319.164 119,345.5C 119.93,363.211 119.596,380.878 118,398.5C 114.31,411.857 106.476,422.024 94.5,429C 110.801,435.634 122.968,446.8 131,462.5C 139.66,447.507 151.826,436.34 167.5,429C 154.266,420.544 146.266,408.544 143.5,393C 142.392,378.517 142.226,364.017 143,349.5C 143.511,343.967 144.844,338.633 147,333.5C 149.135,329.568 150.968,325.568 152.5,321.5C 149.62,302.507 146.787,283.507 144,264.5C 134.607,264.812 127.94,260.812 124,252.5C 117.231,226.452 127.065,214.785 153.5,217.5C 153.333,206.828 153.5,196.161 154,185.5C 159.5,180 165,174.5 170.5,169C 178.013,164.367 183.013,166.201 185.5,174.5C 185.113,176.274 184.447,177.941 183.5,179.5C 178.848,183.651 174.348,187.985 170,192.5C 169.5,200.827 169.334,209.16 169.5,217.5C 173.5,217.5 177.5,217.5 181.5,217.5C 183.678,187.136 198.345,165.136 225.5,151.5C 216.327,143.156 210.827,132.823 209,120.5C 208.333,107.5 208.333,94.5 209,81.5C 213.625,55.2106 229.292,41.2106 256,39.5C 282.177,41.6793 297.511,55.6793 302,81.5C 302.876,96.5363 302.543,111.536 301,126.5C 298.364,136.445 293.198,144.779 285.5,151.5C 312.642,165.102 327.309,187.102 329.5,217.5C 333.5,217.5 337.5,217.5 341.5,217.5C 341.666,209.16 341.5,200.827 341,192.5C 336.967,188.132 332.634,184.132 328,180.5C 324.63,176.163 324.797,171.996 328.5,168C 332.742,165.798 336.742,166.131 340.5,169C 346,174.5 351.5,180 357,185.5C 357.5,196.161 357.667,206.828 357.5,217.5C 383.935,214.785 393.769,226.452 387,252.5C 383.06,260.812 376.393,264.812 367,264.5C 364.213,283.507 361.38,302.507 358.5,321.5C 361.862,328.233 364.695,335.233 367,342.5C 368.983,360.503 368.983,378.503 367,396.5C 363.384,410.439 355.551,421.273 343.5,429C 359.174,436.34 371.34,447.507 380,462.5C 388.032,446.8 400.199,435.634 416.5,429C 395.652,414.668 387.319,394.834 391.5,369.5C 387.528,345.223 395.195,325.723 414.5,311C 439.976,297.83 462.476,301.664 482,322.5C 487.48,329.935 490.814,338.268 492,347.5C 492.908,364.206 492.575,380.873 491,397.5C 487.414,411.174 479.58,421.674 467.5,429C 491.254,439.912 505.921,458.079 511.5,483.5 Z M 252.5,55.5 C 275.122,56.7894 286.455,68.7894 286.5,91.5C 265.471,93.3943 245.305,90.061 226,81.5C 228.683,66.6508 237.516,57.9842 252.5,55.5 Z M 224.5,98.5 C 244.431,106.488 265.098,109.488 286.5,107.5C 287.887,125.065 280.72,137.731 265,145.5C 263.761,151.056 263.094,156.722 263,162.5C 259.987,167.535 255.82,168.702 250.5,166C 249.299,165.097 248.465,163.931 248,162.5C 247.906,156.722 247.239,151.056 246,145.5C 227.607,135.218 220.441,119.551 224.5,98.5 Z M 231.5,166.5 C 234.419,173.92 239.585,179.253 247,182.5C 247.667,185.833 247.667,189.167 247,192.5C 240.025,185.205 233.525,177.538 227.5,169.5C 228.901,168.479 230.235,167.479 231.5,166.5 Z M 278.5,166.5 C 280.975,167.093 282.475,168.426 283,170.5C 276.667,177.833 270.333,185.167 264,192.5C 263.333,189.167 263.333,185.833 264,182.5C 271.48,179.522 276.313,174.189 278.5,166.5 Z M 213.5,179.5 C 224.968,191.805 236.301,204.305 247.5,217C 230.837,217.5 214.17,217.667 197.5,217.5C 198.466,202.912 203.799,190.245 213.5,179.5 Z M 296.5,179.5 C 307.009,189.863 312.676,202.53 313.5,217.5C 296.83,217.667 280.163,217.5 263.5,217C 274.708,204.629 285.708,192.129 296.5,179.5 Z M 139.5,233.5 C 216.833,233.5 294.167,233.5 371.5,233.5C 371.5,238.167 371.5,242.833 371.5,247.5C 318.083,247.009 264.749,247.509 211.5,249C 207.074,254.441 207.741,259.108 213.5,263C 259.165,263.5 304.832,263.667 350.5,263.5C 348.475,279.176 346.308,294.842 344,310.5C 322.68,299.734 302.513,301.568 283.5,316C 275.328,323.846 270.161,333.346 268,344.5C 267.068,362.878 267.401,381.211 269,399.5C 273.159,412.319 280.992,422.152 292.5,429C 276.603,435.728 264.27,446.561 255.5,461.5C 246.73,446.561 234.397,435.728 218.5,429C 230.008,422.152 237.841,412.319 242,399.5C 243.599,381.211 243.932,362.878 243,344.5C 238.801,323.968 226.635,310.801 206.5,305C 192.703,301.679 179.703,303.512 167.5,310.5C 164.7,294.902 162.367,279.235 160.5,263.5C 169.276,263.941 177.942,263.441 186.5,262C 190.5,257.667 190.5,253.333 186.5,249C 170.929,247.531 155.263,247.031 139.5,247.5C 139.5,242.833 139.5,238.167 139.5,233.5 Z M 62.5,319.5 C 83.5175,318.084 97.0175,327.417 103,347.5C 106.477,370.321 97.3101,385.155 75.5,392C 53.6898,393.516 40.1898,383.683 35,362.5C 32.7626,340.619 41.9293,326.286 62.5,319.5 Z M 186.5,319.5 C 216.845,319.802 230.345,335.136 227,365.5C 220.521,384.993 207.021,393.827 186.5,392C 166.472,385.46 157.305,371.627 159,350.5C 161.691,334.314 170.858,323.981 186.5,319.5 Z M 310.5,319.5 C 341.682,319.852 355.182,335.519 351,366.5C 344.676,385.421 331.51,393.921 311.5,392C 289.25,385.033 280.083,369.867 284,346.5C 287.673,332.328 296.507,323.328 310.5,319.5 Z M 435.5,319.5 C 457.605,317.963 471.105,327.963 476,349.5C 478.479,371.331 469.312,385.497 448.5,392C 427.462,393.9 413.962,384.733 408,364.5C 404.733,341.652 413.9,326.652 435.5,319.5 Z M 224.5,398.5 C 223.453,402.261 221.619,405.594 219,408.5C 214.355,412.655 209.355,416.322 204,419.5C 202.804,425.419 202.138,431.419 202,437.5C 196.785,445.09 191.118,445.423 185,438.5C 184.044,431.804 183.044,425.138 182,418.5C 172.696,414.362 165.862,407.696 161.5,398.5C 182.088,411.745 203.088,411.745 224.5,398.5 Z M 286.5,398.5 C 307.912,411.745 328.912,411.745 349.5,398.5C 345.138,407.696 338.304,414.362 329,418.5C 327.956,425.138 326.956,431.804 326,438.5C 319.882,445.423 314.215,445.09 309,437.5C 308.862,431.419 308.196,425.419 307,419.5C 301.645,416.322 296.645,412.655 292,408.5C 289.381,405.594 287.547,402.261 286.5,398.5 Z M 100.5,398.5 C 98.2264,404.289 94.5597,409.122 89.5,413C 86.073,414.796 82.9063,416.963 80,419.5C 78.7547,425.39 78.088,431.39 78,437.5C 74.6076,443.467 69.7742,444.967 63.5,442C 61.9588,440.421 60.7922,438.587 60,436.5C 59.912,430.39 59.2453,424.39 58,418.5C 48.8895,414.389 42.0562,407.889 37.5,399C 58.5137,411.787 79.5137,411.621 100.5,398.5 Z M 410.5,398.5 C 431.513,411.617 452.513,411.784 473.5,399C 468.944,407.889 462.11,414.389 453,418.5C 451.755,424.39 451.088,430.39 451,436.5C 448.149,443.392 443.316,445.225 436.5,442C 434.951,440.786 433.785,439.286 433,437.5C 432.912,431.39 432.245,425.39 431,419.5C 424.597,415.789 418.93,411.122 414,405.5C 412.295,403.423 411.128,401.09 410.5,398.5 Z M 168.5,446.5 C 169.675,446.281 170.675,446.614 171.5,447.5C 180.264,459.248 191.598,462.415 205.5,457C 209.674,453.992 213.341,450.492 216.5,446.5C 236.177,456.841 246.51,473.174 247.5,495.5C 211.5,495.5 175.5,495.5 139.5,495.5C 140.202,473.75 149.868,457.417 168.5,446.5 Z M 293.5,446.5 C 297.262,450.083 301.262,453.583 305.5,457C 320.077,462.36 331.911,458.86 341,446.5C 360.799,456.753 370.966,473.086 371.5,495.5C 335.5,495.5 299.5,495.5 263.5,495.5C 264.615,473.584 274.615,457.25 293.5,446.5 Z M 417.5,446.5 C 420.558,449.051 423.558,451.885 426.5,455C 441.942,463.055 454.942,460.221 465.5,446.5C 484.932,457.025 494.932,473.359 495.5,495.5C 459.5,495.5 423.5,495.5 387.5,495.5C 388.639,473.525 398.639,457.192 417.5,446.5 Z"/></g>
<g><path style="opacity:0.927" fill="#000000" d="M 358.5,58.5 C 390.502,58.3334 422.502,58.5 454.5,59C 458.753,62.4204 459.587,66.5871 457,71.5C 456.097,72.7014 454.931,73.5348 453.5,74C 422.167,74.6667 390.833,74.6667 359.5,74C 353.552,71.5671 352.052,67.4004 355,61.5C 356.145,60.3636 357.312,59.3636 358.5,58.5 Z"/></g>
</svg>
