<svg width="92" height="92" viewBox="0 0 92 92" fill="none" xmlns="http://www.w3.org/2000/svg">
<path d="M79.0471 19.3641C77.1356 17.455 73.8101 17.455 71.8985 19.3641L70.9524 20.3106C70.6074 20.6557 70.1484 20.8453 69.6598 20.8453H69.4407C68.9521 20.8453 68.4931 20.6557 68.1481 20.3091L67.1264 19.2886C66.78 18.9405 66.589 18.4814 66.589 17.9926C66.589 17.4342 66.8392 16.9129 67.276 16.5648L68.1259 15.885C69.0305 15.1592 69.5502 14.078 69.5502 12.9183C69.5502 11.9185 69.146 10.9395 68.4383 10.233L65.7213 7.51514C63.8098 5.60597 60.4843 5.60448 58.5727 7.51514L56.565 9.52502C55.3908 10.6966 54.7438 12.2577 54.7438 13.9506C54.7438 14.7949 54.9126 15.6184 55.2457 16.3974C58.0116 22.8522 63.068 27.9784 69.4821 30.8295L72.4745 32.1581C73.2726 32.5136 74.121 32.6943 74.9961 32.6943C76.6529 32.6943 78.212 32.0485 79.3862 30.8755L81.3954 28.8656C82.3504 27.9102 82.876 26.6409 82.876 25.2886C82.876 23.9364 82.3504 22.6671 81.3954 21.7132L79.0471 19.3641ZM79.3018 26.7698L77.294 28.7797C76.3523 29.7172 74.8894 29.9927 73.6783 29.4506L70.6859 28.1206C64.9558 25.573 60.4384 20.9949 57.9686 15.2303C57.7939 14.823 57.7051 14.392 57.7051 13.9166C57.7051 13.0486 58.0442 12.234 58.6571 11.6208L60.6664 9.61093C61.0632 9.21399 61.5873 8.99626 62.147 8.99626C62.7067 8.99626 63.2309 9.21399 63.6277 9.60945L66.3446 12.3273C66.4986 12.4828 66.589 12.6991 66.589 12.9183C66.589 13.173 66.4749 13.4115 66.2751 13.5715L65.4267 14.2513C64.2821 15.1652 63.6277 16.5278 63.6277 17.9926C63.6277 19.2723 64.1252 20.475 65.0298 21.3814L66.0515 22.4019C66.9576 23.3084 68.1614 23.8075 69.4407 23.8075H69.6598C70.9391 23.8075 72.1428 23.3084 73.046 22.4049L73.9922 21.4599C74.7843 20.6675 76.1613 20.6675 76.9535 21.4599L79.3018 23.8075C79.6986 24.203 79.9147 24.7288 79.9147 25.2886C79.9147 25.8485 79.6986 26.3743 79.3018 26.7698Z" fill="black"/>
<path d="M27.1515 74.5186L30.6729 72.5498C31.0109 72.7013 31.3504 72.8412 31.6929 72.9666L32.7605 76.7934H40.9901L42.0592 72.968C42.4002 72.8427 42.7411 72.7028 43.0791 72.5512L46.6006 74.5201L52.4195 68.8249L50.4079 65.3784C50.5628 65.0476 50.7057 64.7153 50.8337 64.3802L54.7438 63.3338V55.2793L50.8352 54.233C50.7072 53.8993 50.5642 53.5655 50.4094 53.2347L52.421 49.7882L46.6021 44.0931L43.0791 46.0604C42.7426 45.9089 42.4031 45.769 42.0607 45.6437L40.9916 41.8182H32.762L31.6929 45.6437C31.3519 45.769 31.0109 45.9074 30.6744 46.0604L27.1515 44.0931L21.3326 49.7882L23.3442 53.2347C23.1893 53.5655 23.0464 53.8978 22.9183 54.233L19.0083 55.2779V63.3324L22.9168 64.3787C23.0449 64.7124 23.1878 65.0461 23.3427 65.377L21.3311 68.8235L27.1515 74.5186ZM21.9862 61.1071V57.5032L25.2516 56.6273L25.4913 55.8637C25.7042 55.1904 25.9901 54.5186 26.343 53.8672L26.7271 53.1604L25.0446 50.275L27.6473 47.7276L30.594 49.3729L31.3177 48.9984C31.9862 48.653 32.6726 48.3717 33.3576 48.1648L34.1378 47.9302L35.0357 44.7328H38.7179L39.6128 47.9287L40.393 48.1633C41.0779 48.3717 41.7644 48.6515 42.4329 48.9969L43.1566 49.3714L46.1033 47.7261L48.706 50.2735L47.0234 53.1589L47.4076 53.8657C47.7605 54.5171 48.0479 55.189 48.2593 55.8622L48.499 56.6259L51.7658 57.5046V61.1085L48.5005 61.9844L48.2608 62.748C48.0479 63.4213 47.762 64.0931 47.4091 64.7445L47.0249 65.4513L48.7075 68.3367L46.1047 70.8841L43.1566 69.2373L42.4344 69.6133C41.7688 69.9587 41.0824 70.24 40.3945 70.4469L39.6143 70.6815L38.7164 73.8788H35.0342L34.1393 70.683L33.3591 70.4484C32.6712 70.24 31.9847 69.9602 31.3192 69.6148L30.597 69.2388L27.6488 70.8855L25.0461 68.3382L26.7286 65.4527L26.3445 64.7459C25.9916 64.0945 25.7042 63.4227 25.4928 62.7494L25.2531 61.9858L21.9862 61.1071Z" fill="black"/>
<path d="M37.2562 68.4297C42.2881 68.4297 46.3802 64.3376 46.3802 59.3057C46.3802 54.2739 42.2881 50.1818 37.2562 50.1818C32.2243 50.1818 28.1322 54.2739 28.1322 59.3057C28.1322 64.3376 32.2243 68.4297 37.2562 68.4297ZM37.2562 53.2231C40.6108 53.2231 43.3388 55.9512 43.3388 59.3057C43.3388 62.6603 40.6108 65.3884 37.2562 65.3884C33.9016 65.3884 31.1736 62.6603 31.1736 59.3057C31.1736 55.9512 33.9016 53.2231 37.2562 53.2231Z" fill="black"/>
<path d="M87.5484 0H48.9677C46.5134 0 44.5161 1.99729 44.5161 4.45161V16.3226H28.1935C26.131 16.3226 24.4082 17.7382 23.9052 19.645C14.6369 24.561 8.90323 34.0118 8.90323 44.5161V52.0542C3.87884 52.7783 0 57.1008 0 62.3226V68.2581C0 73.9843 4.66084 78.6452 10.3871 78.6452H17.8065V51.9355H11.871V44.5161C11.871 35.512 16.5763 27.3626 24.2672 22.8264C25.0121 24.245 26.4826 25.2258 28.1935 25.2258H44.5161V34.129C44.5161 36.5834 46.5134 38.5806 48.9677 38.5806H61.6029C62.0718 40.5141 62.3226 42.504 62.3226 44.5161V51.9355H56.3871V78.6452H59.205C58.515 82.0269 55.519 84.5806 51.9355 84.5806H44.3054C43.6421 82.0269 41.3392 80.129 38.5806 80.129H32.6452C29.3717 80.129 26.7097 82.7911 26.7097 86.0645C26.7097 89.3379 29.3717 92 32.6452 92H38.5806C41.3392 92 43.6421 90.1021 44.3054 87.5484H51.9355C57.1572 87.5484 61.4797 83.6695 62.2039 78.6452H63.8065C69.5327 78.6452 74.1936 73.9843 74.1936 68.2581V62.3226C74.1936 57.1008 70.3147 52.7783 65.2903 52.0542V44.5161C65.2903 42.5099 65.0781 40.5215 64.6612 38.5806H68.2581V47.193L82.0388 38.5806H87.5484C90.0027 38.5806 92 36.5834 92 34.129V4.45161C92 1.99729 90.0027 0 87.5484 0ZM14.8387 75.6774H11.871V57.871H8.90323V75.5275C5.52148 74.8375 2.96774 71.8401 2.96774 68.2581V62.3226C2.96774 58.2315 6.29606 54.9032 10.3871 54.9032H14.8387V75.6774ZM38.5806 89.0323H32.6452C31.0085 89.0323 29.6774 87.7012 29.6774 86.0645C29.6774 84.4278 31.0085 83.0968 32.6452 83.0968H38.5806C40.2174 83.0968 41.5484 84.4278 41.5484 86.0645C41.5484 87.7012 40.2174 89.0323 38.5806 89.0323ZM71.2258 62.3226V68.2581C71.2258 71.8401 68.6721 74.8375 65.2903 75.5275V57.871H62.3226V75.6774H59.3548V54.9032H63.8065C67.8975 54.9032 71.2258 58.2315 71.2258 62.3226ZM35.6129 19.2903V22.2581H32.6452V19.2903H35.6129ZM26.7097 20.7742C26.7097 19.9566 27.3745 19.2903 28.1935 19.2903H29.6774V22.2581H28.1935C27.3745 22.2581 26.7097 21.5918 26.7097 20.7742ZM38.5806 22.2581V19.2903H44.5161V22.2581H38.5806ZM89.0323 34.129C89.0323 34.9466 88.3675 35.6129 87.5484 35.6129H81.187L71.2258 41.8392V35.6129H48.9677C48.1486 35.6129 47.4839 34.9466 47.4839 34.129V4.45161C47.4839 3.634 48.1486 2.96774 48.9677 2.96774H87.5484C88.3675 2.96774 89.0323 3.634 89.0323 4.45161V34.129Z" fill="black"/>
</svg>
