<svg width="75" height="75" viewBox="0 0 75 75" fill="none" xmlns="http://www.w3.org/2000/svg">
<path d="M65.3226 50.8065H63.6835C66.1548 48.8093 67.7419 45.7573 67.7419 42.3387V37.5C67.7419 32.8319 63.9423 29.0323 59.2742 29.0323H54.4355C54.0242 29.0323 53.6226 29.0722 53.2258 29.129V7.25806H55.6452V0H0V7.25806H2.41935V42.3387H0V49.5968H28.2847L34.3331 61.6936H45.9677V75H75V60.4839C75 55.148 70.6585 50.8065 65.3226 50.8065ZM63.8988 56.1484L58.9887 58.2532L62.3407 53.2258H63.1681L63.8988 56.1484ZM54.2758 53.2258H59.4339L56.8548 57.0931L54.2758 53.2258ZM54.7186 58.2532L49.8085 56.1484L50.5403 53.2258H51.3677L54.7186 58.2532ZM65.3238 42.3387C65.3226 47.0069 61.523 50.8065 56.8548 50.8065C52.1867 50.8065 48.3871 47.0069 48.3871 42.3387H54.046C56.1811 42.3387 58.1879 41.5065 59.6964 39.998L60.3206 39.3738C61.5762 40.927 63.3617 41.9347 65.3238 42.2347V42.3387ZM7.25806 29.0323V39.9194H23.4641C23.4835 39.9617 23.4907 40.0077 23.5113 40.0488L24.6556 42.3387H4.83871V7.25806H50.8065V29.8609C47.9504 31.223 45.9677 34.1311 45.9677 37.5V42.3387H36.1294L32.377 35.3032C31.5073 33.6738 29.8198 32.6613 27.9738 32.6613C26.4556 32.6613 25.1093 33.3581 24.1936 34.4323V29.0323H7.25806ZM21.7742 31.4516V37.5H9.67742V31.4516H21.7742ZM54.4355 31.4516H59.2742C62.6093 31.4516 65.3226 34.1649 65.3226 37.5V39.779C63.9363 39.4718 62.7036 38.648 61.8968 37.4383L60.6714 35.6008L57.9847 38.2875C56.9323 39.3399 55.5339 39.9194 54.046 39.9194H48.3871V37.5C48.3871 34.1649 51.1004 31.4516 54.4355 31.4516ZM2.41935 2.41935H53.2258V4.83871H2.41935V2.41935ZM2.41935 47.1774V44.7581H25.8653L27.075 47.1774H2.41935ZM38.7097 59.2742H35.8282L25.6754 38.9686C25.4976 38.6117 25.4032 38.2137 25.4032 37.8181V37.6512C25.4032 36.2335 26.556 35.0806 27.9738 35.0806C28.9246 35.0806 29.7944 35.6032 30.2419 36.4415L38.7097 52.3173V59.2742ZM37.419 44.7581H46.2484C46.4419 45.6073 46.7371 46.4165 47.1169 47.1774H38.7097L37.419 44.7581ZM40.0004 49.5968H48.7633C49.154 50.0311 49.5726 50.4387 50.0274 50.8065H40.6452L40.0004 49.5968ZM72.5807 72.5807H67.7419V67.7419H72.5807V72.5807ZM72.5807 65.3226H67.7419V60.4839H65.3226V72.5807H48.3871V59.2742H41.129V53.2258H48.0484L46.9645 57.5613L56.8548 61.8L66.7464 57.5613L65.6661 53.2427C69.5081 53.4242 72.5807 56.5972 72.5807 60.4839V65.3226Z" fill="#F4F4F4"/>
<path d="M24.1935 19.3548V16.9355H21.652C21.4948 16.1649 21.1875 15.4488 20.7665 14.8149L22.5689 13.0125L20.8585 11.302L19.056 13.1044C18.4222 12.6835 17.706 12.3762 16.9355 12.219V9.67743H14.5161V12.219C13.7456 12.3762 13.0294 12.6835 12.3956 13.1044L10.5931 11.302L8.88265 13.0125L10.6851 14.8149C10.2641 15.4488 9.95685 16.1649 9.79959 16.9355H7.25806V19.3548H9.79959C9.95685 20.1254 10.2641 20.8415 10.6851 21.4754L8.88265 23.2778L10.5931 24.9883L12.3956 23.1859C13.0294 23.6069 13.7456 23.9141 14.5161 24.0714V26.6129H16.9355V24.0714C17.706 23.9141 18.4222 23.6069 19.056 23.1859L20.8585 24.9883L22.5689 23.2778L20.7665 21.4754C21.1875 20.8415 21.4948 20.1254 21.652 19.3548H24.1935ZM15.7258 21.7742C13.725 21.7742 12.0968 20.146 12.0968 18.1452C12.0968 16.1444 13.725 14.5161 15.7258 14.5161C17.7266 14.5161 19.3548 16.1444 19.3548 18.1452C19.3548 20.146 17.7266 21.7742 15.7258 21.7742Z" fill="#F4F4F4"/>
<path d="M36.9375 12.0968H41.129V9.67743H35.6432L30.8044 16.9355H26.6129V19.3548H32.0988L36.9375 12.0968Z" fill="#F4F4F4"/>
<path d="M48.3871 9.67743H43.5484V12.0968H48.3871V9.67743Z" fill="#F4F4F4"/>
<path d="M33.871 21.7742H26.6129V29.0322H33.871V21.7742ZM31.4516 26.6129H29.0323V24.1935H31.4516V26.6129Z" fill="#F4F4F4"/>
<path d="M41.1291 24.1936H36.2903V26.613H41.1291V24.1936Z" fill="#F4F4F4"/>
<path d="M48.3871 24.1936H43.5484V26.613H48.3871V24.1936Z" fill="#F4F4F4"/>
</svg>
